{"title":"A.Haunting.in.Georgia.2002.DVDRip.XviD-EXViD","uid":6668752,"size":754635470,"categoryP":"video","categoryS":"movies","magnet":"?xt=urn:btih:d40655da20c7d9ae5d48514bfc1b9e6231e74c08&amp;dn=A.Haunting.in.Georgia.2002.DVDRip.XviD-EXViD&amp;tr=udp%3A%2F%2Ftracker.openbittorrent.com%3A80&amp;tr=udp%3A%2F%2Fopen.demonii.com%3A1337&amp;tr=udp%3A%2F%2Ftracker.coppersurfer.tk%3A6969&amp;tr=udp%3A%2F%2Fexodus.desync.com%3A6969","seeders":0,"leechers":0,"uploader":"TvTeam","files":6,"time":1315800295,"description":". \n  &lt;a href=&quot;\nhttp://www.torrenting.com/&quot; rel=&quot;nofollow&quot; target=&quot;_NEW&quot;&gt;\nhttp://www.torrenting.com/&lt;/a&gt;        :     Greatest Movie Tracker on The Net!!!\n &lt;a href=&quot;\nhttp://www.Torrenting.com&quot; rel=&quot;nofollow&quot; target=&quot;_NEW&quot;&gt;\nhttp://www.Torrenting.com&lt;/a&gt;          :     Once &amp; For all ;)\n\n\n               www . Torrenting . Com \n\n(((((((((((((= Enjoy No RAR releases =))))))))))))))))))))\n\n\n...................................NFO:....................................\n\n.                                                                                                     \n       \n     \n     \n       \n       \n     \n     \n                                         \n                                         \n                EXVID                    \n                                         \n         \n                                         \n         Filled the Archives             \n                                         \n         \n                                         \n                With:                    \n                                         \n         \n                                         \n                                    \n     E240                           \n                                    \n     SP               (C) 2009      \n                                         \n     \n     \n     \n                                                                                  \n                                                                                   \n              A.Haunting.in.Georgia.2002.DVDRip.XviD-EXViD                          \n                                                                                   \n                                                                                  \n     \n                                                                                               \nEXViD aims to iNTERNAL those releases which have been lost in the archives.\nEXViD aims to PRE non-internal releases which have poor sources and are likely skipped by others.\n &lt;a href=&quot;\nhttp://www.imdb.com/title/tt0382735/&quot; rel=&quot;nofollow&quot; target=&quot;_NEW&quot;&gt;\nhttp://www.imdb.com/title/tt0382735/&lt;/a&gt;\nSubtitles: None\nDate: 2011.09\n\nDirector: Jeffrey Fine\n\nGenres: Documentary | Horror\n\nPlot:\nBased on true events, A Haunting in Georgia is the chilling story of four-year-old Heidi and\nher imaginary friends Mr. Gordy and Con. As Heidi reveals mysterious details about the two,\nher parents become concerned...could her playmates be more than make-believe? When the rest\nof the family begins experiencing terrifying phenomena--waking with deep gashes on their\nbodies--it seems there's little they can do to stop the escalating nightmare.\n\nCast:\nMary Barclay \t ... \t Female Scientist\nAnthony Call \t ... \t Narrator\nMichael Larson \t ... \t Reporter\nKelsey Lowenthal \t ... \t Young Heidi\nScotty Parker \t ... \t Concerned Neighbor\nWilliam Roll \t ... \t Himself\nRobert Suhr \t ... \t Mr. Gordy\nWill Winchester \t ... \t Male Scientist in Green Shirt\n\nStats:\nFormat                           : AVI\nFormat/Info                      : Audio Video Interleave\nFile size                        : 700 MiB\nDuration                         : 1h 34mn\nOverall bit rate                 : 1 039 Kbps\nWriting application              : Nandub v1.0rc2\nWriting library                  : Nandub build 1852/release\n\nVideo\nID                               : 0\nFormat                           : MPEG-4 Visual\nFormat profile                   : Advanced Simple@L5\nFormat settings, BVOP            : 2\nFormat settings, QPel            : No\nFormat settings, GMC             : No warppoints\nFormat settings, Matrix          : Default (H.263)\nCodec ID                         : XVID\nCodec ID/Hint                    : XviD\nDuration                         : 1h 34mn\nBit rate                         : 908 Kbps\nWidth                            : 528 pixels\nHeight                           : 400 pixels\nDisplay aspect ratio             : 4:3\nFrame rate                       : 29.970 fps\nColor space                      : YUV\nChroma subsampling               : 4:2:0\nBit depth                        : 8 bits\nScan type                        : Progressive\nCompression mode                 : Lossy\nBits/(Pixel*Frame)               : 0.143\nStream size                      : 612 MiB (87%)\nWriting library                  : XviD 64\n\nAudio\nID                               : 1\nFormat                           : MPEG Audio\nFormat version                   : Version 1\nFormat profile                   : Layer 3\nMode                             : Joint stereo\nMode extension                   : MS Stereo\nCodec ID                         : 55\nCodec ID/Hint                    : MP3\nDuration                         : 1h 34mn\nBit rate mode                    : Variable\nBit rate                         : 117 Kbps\nNominal bit rate                 : 128 Kbps\nChannel(s)                       : 2 channels\nSampling rate                    : 48.0 KHz\nCompression mode                 : Lossy\nStream size                      : 78.8 MiB (11%)\nAlignment                        : Aligned on interleaves\nInterleave, duration             : 24 ms (0.72 video frame)\nInterleave, preload duration     : 351 ms\nWriting library                  : LAME3.98r\nEncoding settings                : -m j -V 4 -q 3 -lowpass 17 --abr 128\n\n\n\n\nRelease notes:\nThis is the second pilot of the &quot;A Haunting&quot; series, of which OSiTV ripped the series and\naSpYrE ripped the first pilot called &quot;A Haunting in Connecticut&quot;. As with &quot;Connecticut&quot;\nthere's also a feature film coming out about &quot;Georgia&quot;: http://www.imdb.com/title/tt1457765/\n\nps. No IVTC because source was hybrid. Vobsample included.\n\nenjoy!\n\nLooking for:\n75TB+ Archives\nDUTCH/FLEMiSH Archives\n                                                                                                    \nGreets: CRBS EPiSODE FiCO FLS iLS KLASSiGER LiPSYNC MADE NODLABS RUNNER SPRiNTER      \n   \n\n                                                                    ASCII DONE BY XX^NFO 2oo9","torrent":{"xt":"urn:btih:d40655da20c7d9ae5d48514bfc1b9e6231e74c08","amp;dn":"A.Haunting.in.Georgia.2002.DVDRip.XviD-EXViD","amp;tr":["udp%3A%2F%2Ftracker.openbittorrent.com%3A80","udp%3A%2F%2Fopen.demonii.com%3A1337","udp%3A%2F%2Ftracker.coppersurfer.tk%3A6969","udp%3A%2F%2Fexodus.desync.com%3A6969"],"infoHash":"d40655da20c7d9ae5d48514bfc1b9e6231e74c08","infoHashBuffer":{"type":"Buffer","data":[212,6,85,218,32,199,217,174,93,72,81,75,252,27,158,98,49,231,76,8]},"announce":[],"urlList":[]}}